<svg width="609" height="134" viewBox="0 0 609 134" fill="none" xmlns="http://www.w3.org/2000/svg">
<path d="M321.714 118C299.78 118 282 100.302 282 78.4703C282 61.1677 293.168 46.4617 308.722 41.1049C310.932 21.356 327.759 6 348.19 6C370.124 6 385.442 23.5 385.442 23.5C385.442 23.5 356.464 41.1049 358 68C362.5 96 391.215 101.626 391.215 118H356.464H321.714Z" fill="white"/>
<path d="M323 59.2216C323.953 58.2697 323.695 57.3169 323.38 56.7482C323.171 56.3706 322.807 56.0913 322.381 56.0258C321.759 55.9305 321.226 56.1245 321.057 56.1963C321.018 56.2125 320.981 56.2319 320.945 56.2518C314.497 59.7601 314.02 66.2331 321 70.2216L321.245 70.3447C321.72 70.5828 322.28 70.583 322.755 70.3453C322.917 70.2642 323.067 70.1589 323.175 70.0138C323.521 69.5505 324.164 68.3865 323 67.2216C320 64.2229 320 62.2206 323 59.2216Z" fill="#305581"/>
<path d="M334.936 59.221C333.984 58.2693 334.242 57.3167 334.556 56.7482C334.765 56.3705 335.129 56.0912 335.556 56.0258C336.177 55.9305 336.71 56.1244 336.88 56.1963C336.918 56.2125 336.955 56.2319 336.992 56.2517C343.438 59.7593 343.916 66.2311 336.937 70.2188L336.691 70.3419C336.216 70.5799 335.657 70.5801 335.181 70.3425C335.019 70.2614 334.87 70.1561 334.761 70.011C334.415 69.5478 333.773 68.384 334.936 67.2194C337.936 64.2213 337.936 62.2194 334.936 59.221Z" fill="#305581"/>
<circle cx="329" cy="63" r="4" fill="#305581"/>
<path d="M334.08 87.21L333.174 83.9818L328.873 87.1167L331.779 89.233L334.08 87.21Z" fill="#305581"/>
<path d="M322.367 91.8587L320.274 99.3481L328.875 91.7856L325.97 89.233L322.367 91.8587Z" fill="#305581"/>
<path d="M337.484 99.3481L335.384 91.8587L331.779 89.233L328.875 91.7856L337.484 99.3481Z" fill="#305581"/>
<path d="M332.592 73.6141C331.232 70.2912 326.523 70.3027 325.18 73.6321L320.432 85.4022L316.009 96.1051C314.922 98.7351 318.031 101.099 320.274 99.3481L322.367 91.8587L323.667 87.21L324.569 83.9818L325.049 82.4232C326.208 78.6586 331.537 78.6591 332.695 82.424L333.174 83.9818L334.08 87.21L335.384 91.8587L337.484 99.3481C339.74 101.108 342.869 98.739 341.785 96.0906L332.592 73.6141Z" fill="#305581"/>
<path d="M324.569 83.9818L323.667 87.21L325.97 89.233L328.873 87.1167L324.569 83.9818Z" fill="#305581"/>
<path d="M328.875 91.7856L331.779 89.233L328.873 87.1167L325.97 89.233L328.875 91.7856Z" fill="#305581"/>
<path d="M325.839 79L329 78L329.004 80L322 93H319.214L325.839 79Z" fill="#305581"/>
<path d="M331.433 79L329 78L329.004 80L335.7 93H338.794L331.433 79Z" fill="#305581"/>
<path d="M3.84 105V90.6H25.056L4.8 71.4V69.96C4.8 65.608 5.152 62.568 5.856 60.84C6.624 59.112 7.872 58.056 9.6 57.672C11.392 57.224 14.592 57 19.2 57H41.856V71.4H22.944L43.2 90.6V92.04C43.2 96.392 42.816 99.432 42.048 101.16C41.344 102.888 40.096 103.976 38.304 104.424C36.576 104.808 33.408 105 28.8 105H3.84ZM69.7635 105C63.7475 105 58.6275 103.144 54.4035 99.432C50.1795 95.656 48.0675 89.512 48.0675 81C48.0675 72.168 50.1475 65.96 54.3075 62.376C58.4675 58.792 63.6195 57 69.7635 57H90.3075L82.5315 85.8H68.6115L72.5475 71.4H69.7635C67.2675 71.4 65.4115 72.04 64.1955 73.32C63.0435 74.536 62.4675 77.096 62.4675 81C62.4675 84.52 63.0755 87.016 64.2915 88.488C65.5715 89.896 67.3955 90.6 69.7635 90.6H77.3475C82.2755 90.6 85.6675 90.952 87.5235 91.656C89.4435 92.296 90.6275 93.512 91.0755 95.304C91.5235 97.032 91.7475 100.264 91.7475 105H69.7635ZM125.816 81C125.816 77.16 125.208 74.6 123.992 73.32C122.776 72.04 120.952 71.4 118.52 71.4H112.856V105H98.4563V57H118.52C124.664 57 129.816 58.824 133.976 62.472C138.136 66.056 140.216 72.232 140.216 81V105H125.816V81ZM146.903 105V90.6H168.119L147.863 71.4V69.96C147.863 65.608 148.215 62.568 148.919 60.84C149.687 59.112 150.935 58.056 152.663 57.672C154.455 57.224 157.655 57 162.263 57H184.919V71.4H166.007L186.263 90.6V92.04C186.263 96.392 185.879 99.432 185.111 101.16C184.407 102.888 183.159 103.976 181.367 104.424C179.639 104.808 176.471 105 171.863 105H146.903ZM213.402 105.48C209.562 105.48 205.882 104.456 202.362 102.408C198.906 100.36 196.09 97.48 193.914 93.768C191.738 90.056 190.65 85.8 190.65 81C190.65 76.2 191.738 71.944 193.914 68.232C196.09 64.52 198.906 61.64 202.362 59.592C205.882 57.544 209.562 56.52 213.402 56.52C217.178 56.52 220.794 57.544 224.25 59.592C227.77 61.64 230.618 64.552 232.794 68.328C234.97 72.04 236.058 76.264 236.058 81C236.058 85.736 234.97 89.992 232.794 93.768C230.618 97.48 227.77 100.36 224.25 102.408C220.794 104.456 217.178 105.48 213.402 105.48ZM205.05 81C205.05 84.328 205.786 87.016 207.258 89.064C208.73 91.048 210.778 92.04 213.402 92.04C216.026 92.04 218.042 91.048 219.45 89.064C220.922 87.016 221.658 84.328 221.658 81C221.658 77.672 220.922 75.016 219.45 73.032C218.042 70.984 216.026 69.96 213.402 69.96C210.778 69.96 208.73 70.984 207.258 73.032C205.786 75.016 205.05 77.672 205.05 81ZM257.7 71.4V105H243.3V71.4C243.3 66.6 243.62 63.272 244.26 61.416C244.9 59.496 246.052 58.28 247.716 57.768C249.444 57.256 252.452 57 256.74 57H274.02V71.4H257.7Z" fill="white"/>
<path d="M395.8 52.2C395.8 47.272 396.12 43.88 396.76 42.024C397.464 40.104 398.68 38.92 400.408 38.472C402.2 38.024 405.464 37.8 410.2 37.8V105H395.8V52.2ZM439.215 105.48C435.375 105.48 431.695 104.456 428.174 102.408C424.719 100.36 421.903 97.48 419.727 93.768C417.551 90.056 416.463 85.8 416.463 81C416.463 76.2 417.551 71.944 419.727 68.232C421.903 64.52 424.719 61.64 428.174 59.592C431.695 57.544 435.375 56.52 439.215 56.52C442.991 56.52 446.607 57.544 450.063 59.592C453.583 61.64 456.431 64.552 458.607 68.328C460.783 72.04 461.871 76.264 461.871 81C461.871 85.736 460.783 89.992 458.607 93.768C456.431 97.48 453.583 100.36 450.063 102.408C446.607 104.456 442.991 105.48 439.215 105.48ZM430.863 81C430.863 84.328 431.599 87.016 433.071 89.064C434.543 91.048 436.591 92.04 439.215 92.04C441.839 92.04 443.855 91.048 445.263 89.064C446.735 87.016 447.471 84.328 447.471 81C447.471 77.672 446.735 75.016 445.263 73.032C443.855 70.984 441.839 69.96 439.215 69.96C436.591 69.96 434.543 70.984 433.071 73.032C431.599 75.016 430.863 77.672 430.863 81ZM488.889 105C482.745 105 477.593 103.208 473.433 99.624C469.273 95.976 467.193 89.768 467.193 81V57H481.593V81C481.593 84.84 482.201 87.4 483.417 88.68C484.633 89.96 486.457 90.6 488.889 90.6H494.553V57H508.953V105H488.889ZM543.021 71.4H537.357C534.989 71.4 533.165 72.136 531.885 73.608C530.669 75.016 530.061 77.48 530.061 81C530.061 84.904 530.637 87.496 531.789 88.776C533.005 89.992 534.861 90.6 537.357 90.6H543.981C548.909 90.6 552.301 90.952 554.157 91.656C556.077 92.296 557.261 93.512 557.709 95.304C558.157 97.032 558.381 100.264 558.381 105H537.357C531.213 105 526.061 103.208 521.901 99.624C517.741 96.04 515.661 89.832 515.661 81C515.661 72.488 517.773 66.376 521.997 62.664C526.221 58.888 531.341 57 537.357 57H543.021V52.2C543.021 47.272 543.341 43.88 543.981 42.024C544.685 40.104 545.901 38.92 547.629 38.472C549.421 38.024 552.685 37.8 557.421 37.8V85.8H543.021V71.4ZM565.09 105V90.6H586.306L566.05 71.4V69.96C566.05 65.608 566.402 62.568 567.106 60.84C567.874 59.112 569.122 58.056 570.85 57.672C572.642 57.224 575.842 57 580.45 57H603.106V71.4H584.194L604.45 90.6V92.04C604.45 96.392 604.066 99.432 603.298 101.16C602.594 102.888 601.346 103.976 599.554 104.424C597.826 104.808 594.658 105 590.05 105H565.09Z" fill="white"/>
</svg>
