<svg width="180" height="180" viewBox="0 0 180 180" fill="none" xmlns="http://www.w3.org/2000/svg">
<rect width="180" height="180" rx="90" fill="white"/>
<path d="M74.714 146C52.7805 146 34.9996 128.302 34.9996 106.47C34.9996 89.1677 46.1683 74.4617 61.7217 69.1049C63.9318 49.356 80.7591 34 101.19 34C123.124 34 138.442 51.5 138.442 51.5C138.442 51.5 109.464 69.1049 111 96C115.5 124 144.215 129.626 144.215 146H109.464H74.714Z" fill="#0047FF"/>
<path d="M76.0002 87.2216C76.9526 86.2697 76.695 85.3169 76.3803 84.7482C76.1712 84.3706 75.8073 84.0913 75.3806 84.0258C74.7591 83.9305 74.2262 84.1245 74.0566 84.1963C74.0183 84.2125 73.9812 84.2319 73.9447 84.2518C67.4971 87.7601 67.0195 94.2331 73.9996 98.2216L74.2452 98.3447C74.7203 98.5828 75.2798 98.583 75.7551 98.3453C75.9171 98.2642 76.0666 98.1589 76.1751 98.0138C76.5214 97.5505 77.1637 96.3865 76.0002 95.2216C72.9998 92.2229 72.9998 90.2206 76.0002 87.2216Z" fill="white"/>
<path d="M87.9362 87.221C86.984 86.2693 87.2415 85.3167 87.5562 84.7482C87.7652 84.3705 88.1292 84.0912 88.5558 84.0258C89.1773 83.9305 89.7101 84.1244 89.8796 84.1963C89.9179 84.2125 89.955 84.2319 89.9915 84.2517C96.4382 87.7593 96.9157 94.2311 89.9366 98.2188L89.691 98.3419C89.216 98.5799 88.6566 98.5801 88.1814 98.3425C88.0193 98.2614 87.8699 98.1561 87.7614 98.011C87.4151 97.5478 86.7729 96.384 87.9362 95.2194C90.9363 92.2213 90.9363 90.2194 87.9362 87.221Z" fill="white"/>
<circle cx="82" cy="91" r="4" fill="white"/>
<path d="M87.0796 115.21L86.174 111.982L81.873 115.117L84.7787 117.233L87.0796 115.21Z" fill="white"/>
<path d="M75.3674 119.859L73.2742 127.348L81.8754 119.786L78.9696 117.233L75.3674 119.859Z" fill="white"/>
<path d="M90.4845 127.348L88.3836 119.859L84.7787 117.233L81.8754 119.786L90.4845 127.348Z" fill="white"/>
<path d="M85.5916 101.614C84.2324 98.2912 79.5228 98.3027 78.1798 101.632L73.4318 113.402L69.0085 124.105C67.9216 126.735 71.0306 129.099 73.2742 127.348L75.3674 119.859L76.6666 115.21L77.5689 111.982L78.0486 110.423C79.2075 106.659 84.5368 106.659 85.6948 110.424L86.174 111.982L87.0796 115.21L88.3836 119.859L90.4845 127.348C92.7403 129.108 95.8686 126.739 94.7853 124.091L85.5916 101.614Z" fill="white"/>
<path d="M77.5689 111.982L76.6666 115.21L78.9696 117.233L81.873 115.117L77.5689 111.982Z" fill="white"/>
<path d="M81.8754 119.786L84.7787 117.233L81.873 115.117L78.9696 117.233L81.8754 119.786Z" fill="white"/>
<path d="M78.8377 107L81.999 106L82.0029 108L74.999 121H72.2129L78.8377 107Z" fill="white"/>
<path d="M84.4321 107L81.999 106L82.003 108L88.699 121H91.793L84.4321 107Z" fill="white"/>
</svg>
