<svg width="110" height="112" viewBox="0 0 110 112" fill="none" xmlns="http://www.w3.org/2000/svg">
<path d="M39.714 112C17.7805 112 -0.000396729 94.3019 -0.000396729 72.4703C-0.000396729 55.1677 11.1683 40.4617 26.7217 35.1049C28.9318 15.356 45.7591 0 66.19 0C88.1237 0 103.442 17.5 103.442 17.5C103.442 17.5 74.4644 35.1049 76 62C80.5 90 109.215 95.6263 109.215 112H74.4644H39.714Z" fill="#0047FF"/>
<path d="M41.0002 53.2216C41.9526 52.2697 41.695 51.3169 41.3803 50.7482C41.1712 50.3706 40.8073 50.0913 40.3806 50.0258C39.7591 49.9305 39.2262 50.1245 39.0566 50.1963C39.0183 50.2125 38.9812 50.2319 38.9447 50.2518C32.4971 53.7601 32.0195 60.2331 38.9996 64.2216L39.2452 64.3447C39.7203 64.5828 40.2798 64.583 40.7551 64.3453V64.3453C40.9171 64.2642 41.0666 64.1589 41.1751 64.0138C41.5214 63.5505 42.1637 62.3865 41.0002 61.2216C37.9998 58.2229 37.9998 56.2206 41.0002 53.2216Z" fill="white"/>
<path d="M52.9362 53.221C51.984 52.2693 52.2415 51.3167 52.5562 50.7482C52.7652 50.3705 53.1292 50.0912 53.5558 50.0258C54.1773 49.9305 54.7101 50.1244 54.8796 50.1963C54.9179 50.2125 54.955 50.2319 54.9915 50.2517C61.4382 53.7593 61.9157 60.2311 54.9366 64.2188L54.691 64.3419C54.216 64.5799 53.6566 64.5801 53.1814 64.3425V64.3425C53.0193 64.2614 52.8699 64.1561 52.7614 64.011C52.4151 63.5478 51.7729 62.384 52.9362 61.2194C55.9363 58.2213 55.9363 56.2194 52.9362 53.221Z" fill="white"/>
<circle cx="47" cy="57" r="4" fill="white"/>
<path d="M52.0796 81.21L51.174 77.9818L46.873 81.1167L49.7787 83.233L52.0796 81.21Z" fill="white"/>
<path d="M40.3674 85.8587L38.2742 93.3481L46.8754 85.7856L43.9696 83.233L40.3674 85.8587Z" fill="white"/>
<path d="M55.4845 93.3481L53.3836 85.8587L49.7787 83.233L46.8754 85.7856L55.4845 93.3481Z" fill="white"/>
<path d="M50.5916 67.6141C49.2324 64.2912 44.5228 64.3027 43.1798 67.6321L38.4318 79.4022L34.0085 90.1051C32.9216 92.7351 36.0306 95.0988 38.2742 93.3481V93.3481L40.3674 85.8587L41.6666 81.21L42.5689 77.9818L43.0486 76.4232C44.2075 72.6586 49.5368 72.6591 50.6948 76.424L51.174 77.9818L52.0796 81.21L53.3836 85.8587L55.4845 93.3481V93.3481C57.7403 95.1084 60.8686 92.739 59.7853 90.0906L50.5916 67.6141Z" fill="white"/>
<path d="M42.5689 77.9818L41.6666 81.21L43.9696 83.233L46.873 81.1167L42.5689 77.9818Z" fill="white"/>
<path d="M46.8754 85.7856L49.7787 83.233L46.873 81.1167L43.9696 83.233L46.8754 85.7856Z" fill="white"/>
<path d="M43.8377 73L46.999 72L47.0029 74L39.999 87H37.2129L43.8377 73Z" fill="white"/>
<path d="M49.4321 73L46.999 72L47.003 74L53.699 87H56.793L49.4321 73Z" fill="white"/>
</svg>
